# AST/ASF file generated using VICON BodyLanguage
# -----------------------------------------------
:version 1.10
:name VICON
:units
  mass 1.0
  length 0.45
  angle deg
:documentation
   .ast/.asf automatically generated from VICON data using
   VICON BodyBuilder and BodyLanguage model FoxedUp or BRILLIANT.MOD
:root
   order TX TY TZ RX RY RZ
   axis XYZ
   position 0 0 0  
   orientation 0 0 0 
:bonedata
  begin
     id 1 
     name lhipjoint
     direction 0.702568 -0.596508 0.388042 
     length 2.56661 
     axis 0 0 0  XYZ
  end
  begin
     id 2 
     name lfemur
     direction 0.34202 -0.939693 0  
     length 6.58374  
     axis 0 0 20  XYZ
    dof rx ry rz
    limits (-160.0 20.0)
           (-70.0 70.0)
           (-60.0 70.0)
  end
  begin
     id 3 
     name ltibia
     direction 0.34202 -0.939693 0   
     length 6.62538   
     axis 0 0 20   XYZ
    dof rx
    limits (-10.0 170.0)
  end
  begin
     id 4 
     name lfoot
     direction 0.10455 -0.287249 0.952133   
     length 2.26699   
     axis -90 7.62852e-016 20   XYZ
    dof rx rz
    limits (-45.0 90.0)
           (-70.0 20.0)
  end
  begin
     id 5 
     name ltoes
     direction 1.53572e-011 -4.22322e-011 1   
     length 1.12949   
     axis -90 7.62852e-016 20   XYZ
    dof rx
    limits (-90.0 20.0)
  end
  begin
     id 6 
     name rhipjoint
     direction -0.728055 -0.574632 0.373811   
     length 2.66432  
     axis 0 0 0  XYZ 
  end
  begin
     id 7 
     name rfemur
     direction -0.34202 -0.939693 0   
     length 6.66732   
     axis 0 0 -20   XYZ
    dof rx ry rz
    limits (-160.0 20.0)
           (-70.0 70.0)
           (-70.0 60.0)
  end
  begin
     id 8 
     name rtibia
     direction -0.34202 -0.939693 0   
     length 6.59288   
     axis 0 0 -20   XYZ
    dof rx
    limits (-10.0 170.0)
 end
 begin
     id 9 
     name rfoot
     direction -0.119193 -0.327479 0.93731   
     length 2.38061  
     axis -90 -7.62852e-016 -20   XYZ
    dof rx rz
    limits (-45.0 90.0)
           (-20.0 70.0)
  end
  begin
     id 10 
     name rtoes
     direction -1.53547e-011 -4.21827e-011 1   
     length 1.17899   
     axis -90 -7.62852e-016 -20   XYZ
    dof rx
    limits (-90.0 20.0)
  end
  begin
     id 11 
     name lowerback
     direction -0.000416114 0.999912 -0.0132284   
     length 2.12109   
     axis 0 0 0   XYZ
    dof rx ry rz
    limits (-20.0 45.0)
           (-30.0 30.0)
           (-30.0 30.0)
  end
  begin
     id 12 
     name upperback
     direction -0.00136371 0.99809 0.0617608   
     length 2.10067   
     axis 0 0 0   XYZ
    dof rx ry rz
    limits (-20.0 45.0)
           (-30.0 30.0)
           (-30.0 30.0)
  end
  begin
     id 13 
     name thorax
     direction -3.43026e-005 0.997776 0.0666515   
     length 2.10618   
     axis 0 0 0   XYZ
    dof rx ry rz
    limits (-20.0 45.0)
           (-30.0 30.0)
           (-30.0 30.0)
  end
  begin
     id 14 
     name lowerneck
     direction 0.0398646 0.998418 0.0396592   
     length 1.83817   
     axis 0 0 0   XYZ
    dof rx ry rz
    limits (-20.0 45.0)
           (-30.0 30.0)
           (-30.0 30.0)
  end
  begin
     id 15 
     name upperneck
     direction -0.0367268 0.961527 -0.272244   
     length 1.81975   
     axis 0 0 0   XYZ
    dof rx ry rz
    limits (-20.0 45.0)
           (-30.0 30.0)
           (-30.0 30.0)
  end
  begin
     id 16
     name head
     direction -0.0182665 0.99536 -0.0944669  
     length 1.86026  
     axis 0 0 0   XYZ
    dof rx ry rz
    limits (-20.0 45.0)
           (-30.0 30.0)
           (-30.0 30.0)
  end
  begin
     id 17 
     name lclavicle
     direction 0.924239 0.361045 0.124212  
     length 3.26878  
     axis 0 0 0   XYZ
    dof ry rz
    limits (-20.0 10.0)
           (0.0 20.0)
  end
  begin
     id 18 
     name lhumerus
     direction 1 -4.48968e-011 -2.56583e-027   
     length 4.58538   
     axis 180 -30 -90   XYZ
    dof rx ry rz
    limits (-60.0 90.0)
           (-90.0 90.0)
           (-90.0 90.0)
  end
  begin
     id 19
     name lradius
     direction 1 -4.4898e-011 -5.50375e-027   
     length 2.68935   
     axis 180 -30 -90   XYZ
    dof rx
    limits (-10.0 170.0)
  end
  begin
     id 20
     name lwrist
     direction 1 -4.48939e-011 -1.48955e-026   
     length 1.34468   
     axis 9.0955e-015 90 90   XYZ
    dof ry
    limits (-180.0 0.0)
 end
  begin
     id 21 
     name lhand
     direction 1 -4.48936e-011 -2.97907e-026   
     length 0.585058   
     axis 1.90115e-014 90 90   XYZ
    dof rx rz
    limits (-90.0 90.0)
           (-45.0 45.0)
  end
  begin
     id 22 
     name lfingers
     direction 1 -4.49082e-011 -5.96235e-026   
     length 0.471689   
     axis 3.80223e-014 90 90   XYZ
    dof rx
    limits (0.0 90.0)
  end
  begin
     id 23
     name lthumb
     direction 0.707107 -6.3489e-011 0.707107   
     length 0.677253   
     axis -90 45 -3.84942e-014   XYZ
    dof rx rz
    limits (-45.0 45.0)
           (-45.0 45.0)
  end
  begin
     id 24 
     name rclavicle
     direction -0.923098 0.371783 0.0983239   
     length 3.19656  
     axis 0 0 0   XYZ 
    dof ry rz
    limits (-10.0 20.0)
           (-20.0 0.0)
  end
  begin
     id 25 
     name rhumerus
     direction -1 -4.48976e-011 -2.5492e-027  
     length 4.4745   
     axis 180 30 90   XYZ
    dof rx ry rz
    limits (-90.0 60.0)
           (-90.0 90.0)
           (-90.0 90.0)
  end
  begin
     id 26 
     name rradius
     direction -1 -4.48941e-011 -4.36555e-027   
     length 2.93896   
     axis 180 30 90   XYZ
    dof rx
    limits (-10.0 170.0)
  end
  begin
     id 27 
     name rwrist
     direction -1 -4.49044e-011 -1.49032e-026   
     length 1.46948   
     axis 9.0955e-015 -90 -90   XYZ
    dof ry
    limits (-180.0 0.0)
  end
  begin
     id 28
     name rhand
     direction -1 -4.48826e-011 -2.97749e-026   
     length 0.405092   
     axis 1.90115e-014 -90 -90   XYZ
    dof rx rz
    limits (-90.0 90.0)
           (-45.0 45.0)
  end
  begin
     id 29
     name rfingers
     direction -1 -4.49209e-011 -5.96602e-026   
     length 0.326596   
     axis 3.80223e-014 -90 -90   XYZ
    dof rx
    limits (0.0 90.0)
  end
  begin
     id 30
     name rthumb
     direction -0.707107 -6.34776e-011 0.707107   
     length 0.468928   
     axis -90 -45 3.84942e-014   XYZ
    dof rx rz
    limits (-45.0 45.0)
           (-45.0 45.0)
  end
:hierarchy
  begin
    root lhipjoint rhipjoint lowerback
    lhipjoint lfemur
    lfemur ltibia
    ltibia lfoot
    lfoot ltoes
    rhipjoint rfemur
    rfemur rtibia
    rtibia rfoot
    rfoot rtoes
    lowerback upperback
    upperback thorax
    thorax lowerneck lclavicle rclavicle
    lowerneck upperneck
    upperneck head
    lclavicle lhumerus
    lhumerus lradius
    lradius lwrist
    lwrist lhand lthumb
    lhand lfingers
    rclavicle rhumerus
    rhumerus rradius
    rradius rwrist
    rwrist rhand rthumb
    rhand rfingers
  end

#!OML:ASF H:\Punching\Project 1\Capture day 1\Session 1\female.ASF
:FULLY-SPECIFIED
:DEGREES
1
root -0.0298435 15.6712 3.63503 8.72556 -13.7751 -4.68613
lowerback -5.62664 -1.04073 5.21309
upperback -7.51765 -1.5235 0.816696
thorax -4.78307 -1.0238 -2.08291
lowerneck -10.7077 -5.02255 -0.678107
upperneck 31.4055 -6.58387 -2.69394
head 11.9892 -3.47531 -1.7824
rclavicle 2.34069e-014 1.2921e-014
rhumerus -40.8755 -9.42657 -70.9868
rradius 31.3966
rwrist 9.12431
rhand -1.81829 -11.1162
rfingers 7.12502
rthumb 23.8477 -39.6558
lclavicle 2.34069e-014 1.2921e-014
lhumerus -49.8189 16.8859 67.7187
lradius 33.2096
lwrist -24.0326
lhand -3.85274 12.1109
lfingers 7.12502
lthumb 21.8954 40.8919
rfemur -12.9078 11.2134 19.5224
rtibia 23.4319
rfoot -15.0435 -17.7704
rtoes 0.721225
lfemur -9.48579 -11.3384 -15.2393
ltibia 27.3527
lfoot -24.2264 26.6839
ltoes 3.93699
2
root -0.0269864 15.6717 3.63495 8.73388 -13.7465 -4.69945
lowerback -5.64884 -1.03466 5.25802
upperback -7.48035 -1.51942 0.795055
thorax -4.73302 -1.02277 -2.1317
lowerneck -10.7172 -5.02954 -0.680746
upperneck 31.4069 -6.61608 -2.62069
head 11.9947 -3.48045 -1.75938
rclavicle -6.03063e-014 -1.47101e-014
rhumerus -40.8648 -9.02682 -71.3283
rradius 31.264
rwrist 13.7029
rhand -4.88141 -10.7425
rfingers 7.12502
rthumb 20.9074 -39.6359
lclavicle -6.03063e-014 -1.47101e-014
lhumerus -49.8295 16.9675 67.5656
lradius 33.1457
lwrist -25.2808
lhand -3.9027 11.7687
lfingers 7.12502
lthumb 21.8474 40.5554
rfemur -12.9005 11.2376 19.5251
rtibia 23.4169
rfoot -15.0413 -17.8124
rtoes 0.705166
lfemur -9.51155 -11.2927 -15.2256
ltibia 27.3621
lfoot -24.1948 26.632
ltoes 3.87881
3
root -0.024389 15.6725 3.63396 8.74371 -13.7217 -4.65171
lowerback -5.60465 -1.05938 5.20053
upperback -7.51279 -1.54721 0.800891
thorax -4.79207 -1.03553 -2.0921
lowerneck -10.7128 -5.02021 -0.699134
upperneck 31.4861 -6.60547 -2.60772
head 12.0272 -3.47602 -1.75288
rclavicle -3.46631e-014 7.85199e-015
rhumerus -40.8711 -8.97035 -71.2999
rradius 30.9316
rwrist 18.1956
rhand -6.98038 -9.11829
rfingers 7.12502
rthumb 18.8897 -38.2211
lclavicle -3.46631e-014 7.85199e-015
lhumerus -49.9793 17.1467 67.3543
lradius 33.0713
lwrist -26.0732
lhand -3.89082 11.6821
lfingers 7.12502
lthumb 21.8588 40.4674
rfemur -12.9149 11.2812 19.4581
rtibia 23.4069
rfoot -15.0593 -17.8641
rtoes 0.865995
lfemur -9.55476 -11.2979 -15.2745
ltibia 27.3693
lfoot -24.178 26.6134
ltoes 3.87328
4
root -0.0221382 15.6728 3.63287 8.76426 -13.7058 -4.67309
lowerback -5.61409 -1.04618 5.24216
upperback -7.49178 -1.53215 0.784184
thorax -4.76544 -1.02957 -2.1332
lowerneck -10.7252 -5.0234 -0.660903
upperneck 31.4931 -6.6231 -2.59418
head 12.0312 -3.47742 -1.75722
rclavicle 5.00192e-014 1.59028e-014
rhumerus -40.8496 -9.3947 -71.0555
rradius 30.7137
rwrist 22.5102
rhand -7.6504 -9.14524
rfingers 7.12502
rthumb 18.2452 -38.3096
lclavicle 5.00192e-014 1.59028e-014
lhumerus -49.9618 17.2772 67.2207
lradius 33.0313
lwrist -25.3882
lhand -3.82632 11.9836
lfingers 7.12502
lthumb 21.9207 40.7617
rfemur -12.9626 11.1914 19.4902
rtibia 23.3955
rfoot -14.8681 -17.907
rtoes 0.158804
lfemur -9.5899 -11.2911 -15.2493
ltibia 27.3791
lfoot -24.1718 26.5888
ltoes 3.90887
5
root -0.0196639 15.6731 3.63199 8.7747 -13.6849 -4.66471
lowerback -5.61035 -1.04608 5.24703
upperback -7.48166 -1.53248 0.771659
thorax -4.75737 -1.02994 -2.14905
lowerneck -10.7221 -5.02693 -0.657509
upperneck 31.5111 -6.64008 -2.56109
head 12.0389 -3.48027 -1.74824
rclavicle -1.83876e-015 -2.68359e-014
rhumerus -40.8449 -9.76598 -70.7985
rradius 30.4795
rwrist 26.8335
rhand -8.81828 -8.80026
rfingers 7.12502
rthumb 17.1214 -38.0659
lclavicle -1.83876e-015 -2.68359e-014
lhumerus -49.9791 17.4046 67.0929
lradius 32.9858
lwrist -24.9659
lhand -3.81102 12.2077
lfingers 7.12502
lthumb 21.9354 40.9841
rfemur -12.9999 11.1269 19.4856
rtibia 23.3915
rfoot -14.7298 -17.9506
rtoes -0.361407
lfemur -9.61988 -11.2838 -15.2577
ltibia 27.3825
lfoot -24.157 26.5636
ltoes 3.91925
6
root -0.0172422 15.6733 3.63102 8.78363 -13.6644 -4.65419
lowerback -5.60544 -1.04513 5.24834
upperback -7.47174 -1.53152 0.758849
thorax -4.74993 -1.0295 -2.16318
lowerneck -10.7132 -5.03199 -0.653558
upperneck 31.5227 -6.65867 -2.53
head 12.0428 -3.48411 -1.73985
rclavicle -1.19768e-014 -4.96962e-016
rhumerus -40.8443 -10.3453 -70.3883
rradius 30.2053
rwrist 30.953
rhand -9.66769 -8.3168
rfingers 7.12502
rthumb 16.3036 -37.6514
lclavicle -1.19768e-014 -4.96962e-016
lhumerus -49.9722 17.5101 67.0076
lradius 32.9449
lwrist -24.0202
lhand -3.8364 12.5849
lfingers 7.12502
lthumb 21.9111 41.3641
rfemur -13.0364 11.0482 19.4814
rtibia 23.3795
rfoot -14.5684 -17.9915
rtoes -0.955566
lfemur -9.65223 -11.2791 -15.2688
ltibia 27.3934
lfoot -24.1471 26.5416
ltoes 3.93006
7
root -0.0148512 15.6735 3.62997 8.79027 -13.645 -4.64513
lowerback -5.59545 -1.04295 5.24878
upperback -7.46266 -1.52852 0.746935
thorax -4.74602 -1.02806 -2.17573
lowerneck -10.6979 -5.03822 -0.648011
upperneck 31.5278 -6.6788 -2.50022
head 12.0425 -3.4887 -1.73193
rclavicle -2.7482e-014 -7.85199e-015
rhumerus -40.8528 -11.0632 -69.8721
rradius 29.9024
rwrist 34.64
rhand -10.2899 -7.74879
rfingers 7.12502
rthumb 15.7045 -37.1315
lclavicle -2.7482e-014 -7.85199e-015
lhumerus -49.9438 17.5823 66.9724
lradius 32.914
lwrist -22.6475
lhand -3.93406 13.0812
lfingers 7.12502
lthumb 21.8173 41.8714
rfemur -13.0696 10.9785 19.4772
rtibia 23.372
rfoot -14.4276 -18.0275
rtoes -1.48011
lfemur -9.67873 -11.2746 -15.2791
ltibia 27.3984
lfoot -24.1342 26.5228
ltoes 3.93723
8
root -0.01252 15.6737 3.62878 8.79584 -13.626 -4.63689
lowerback -5.58109 -1.04153 5.24569
upperback -7.45511 -1.52604 0.737995
thorax -4.74599 -1.02673 -2.18308
lowerneck -10.6804 -5.04454 -0.644606
upperneck 31.5322 -6.69868 -2.47009
head 12.0416 -3.49342 -1.72339
rclavicle 7.91411e-014 1.19271e-014
rhumerus -40.8652 -11.8314 -69.3098
rradius 29.5828
rwrist 37.5707
rhand -10.7031 -7.13969
rfingers 7.12502
rthumb 15.3065 -36.5533
lclavicle 7.91411e-014 1.19271e-014
lhumerus -49.9009 17.6282 66.9799
lradius 32.8949
lwrist -21.0223
lhand -4.10779 13.6554
lfingers 7.12502
lthumb 21.6504 42.4649
rfemur -13.0933 10.9358 19.4694
rtibia 23.3621
rfoot -14.3272 -18.0607
rtoes -1.83438
lfemur -9.70409 -11.2675 -15.2885
ltibia 27.4027
lfoot -24.1193 26.5035
ltoes 3.93644
9
root -0.0102802 15.674 3.62754 8.80135 -13.6082 -4.63107
lowerback -5.56302 -1.03935 5.24076
upperback -7.44974 -1.52214 0.731292
thorax -4.75013 -1.02466 -2.18695
lowerneck -10.6633 -5.05003 -0.634425
upperneck 31.5381 -6.7169 -2.44664
head 12.0408 -3.49744 -1.7183
rclavicle -6.13251e-014 -1.40143e-014
rhumerus -40.8789 -12.586 -68.7499
rradius 29.2405
rwrist 39.4819
rhand -10.9425 -6.45751
rfingers 7.12502
rthumb 15.0759 -35.8885
lclavicle -6.13251e-014 -1.40143e-014
lhumerus -49.8493 17.6526 67.016
lradius 32.881
lwrist -19.3766
lhand -4.35958 14.2387
lfingers 7.12502
lthumb 21.4086 43.0759
rfemur -13.1085 10.9188 19.4598
rtibia 23.3499
rfoot -14.2643 -18.0925
rtoes -2.03307
lfemur -9.72802 -11.2612 -15.2954
ltibia 27.4063
lfoot -24.1022 26.487
ltoes 3.927
10
root -0.00812944 15.6745 3.62623 8.80714 -13.5909 -4.62918
lowerback -5.54326 -1.03647 5.23579
upperback -7.44513 -1.51709 0.727508
thorax -4.75584 -1.02198 -2.18768
lowerneck -10.6498 -5.05581 -0.627768
upperneck 31.5485 -6.73628 -2.4186
head 12.043 -3.50175 -1.71138
rclavicle -8.49804e-015 2.5842e-014
rhumerus -40.8775 -13.1735 -68.3147
rradius 28.9432
rwrist 39.915
rhand -10.8174 -6.10152
rfingers 7.12502
rthumb 15.1964 -35.5235
lclavicle -8.49804e-015 2.5842e-014
lhumerus -49.7966 17.6644 67.0696
lradius 32.8668
lwrist -17.9552
lhand -4.68639 14.7597
lfingers 7.12502
lthumb 21.0947 43.6323
rfemur -13.1121 10.9395 19.448
rtibia 23.3366
rfoot -14.2577 -18.1231
rtoes -2.00487
lfemur -9.75084 -11.2539 -15.2976
ltibia 27.4084
lfoot -24.0849 26.4696
ltoes 3.92089
11
root -0.00600924 15.6749 3.625 8.81295 -13.5742 -4.62579
lowerback -5.52622 -1.03334 5.22709
upperback -7.43915 -1.5118 0.724535
thorax -4.75835 -1.01886 -2.1856
lowerneck -10.6417 -5.06161 -0.62379
upperneck 31.5616 -6.75657 -2.38576
head 12.0476 -3.50608 -1.70264
rclavicle 1.9307e-014 -8.94531e-015
rhumerus -40.8515 -13.5542 -68.0383
rradius 28.6771
rwrist 38.7956
rhand -10.4681 -5.93429
rfingers 7.12502
rthumb 15.5329 -35.3304
lclavicle 1.9307e-014 -8.94531e-015
lhumerus -49.7513 17.68 67.1221
lradius 32.8403
lwrist -16.999
lhand -5.08286 15.1526
lfingers 7.12502
lthumb 20.7138 44.0672
rfemur -13.1164 10.9565 19.4351
rtibia 23.3236
rfoot -14.249 -18.151
rtoes -1.98855
lfemur -9.77277 -11.2478 -15.3014
ltibia 27.4089
lfoot -24.0659 26.4534
ltoes 3.91278
